<svg viewBox="0 0 240 240" xmlns="http://www.w3.org/2000/svg">
  <rect width="100%" height="100%" fill="#F4F6F8"/>

  <!-- Icon -->
  <g transform="translate(60,40)">
    <!-- Magenta shadow (2px offset) -->
    <path d="M64,0 a64,64 0 0 1 64,64 v64 c0,0 -16,-12 -32,-12 s-32,12 -32,12 s-16,-12 -32,-12 s-32,12 -32,12 v-64 a64,64 0 0 1 64,-64 z" fill="none" stroke="#FF2A6D" stroke-width="12" opacity="0.9" transform="translate(2,2)"/>
    <!-- Neon core stroke -->
    <path d="M64,0 a64,64 0 0 1 64,64 v64 c0,0 -16,-12 -32,-12 s-32,12 -32,12 s-16,-12 -32,-12 s-32,12 -32,12 v-64 a64,64 0 0 1 64,-64 z" fill="none" stroke="#39FF14" stroke-width="10" stroke-linejoin="round"/>
    <!-- Eyes -->
    <circle cx="78" cy="64" r="7" fill="#39FF14"/>
    <circle cx="110" cy="64" r="7" fill="#39FF14"/>
  </g>
</svg>