<svg viewBox="0 0 720 240" xmlns="http://www.w3.org/2000/svg">
  <rect width="100%" height="100%" fill="#0E0F12"/>

  <!-- Icon -->
  <g transform="translate(60,40)">
    <!-- Magenta shadow (2px offset) -->
    <path d="M64,0 a64,64 0 0 1 64,64 v64 c0,0 -16,-12 -32,-12 s-32,12 -32,12 s-16,-12 -32,-12 s-32,12 -32,12 v-64 a64,64 0 0 1 64,-64 z" fill="none" stroke="#FF2A6D" stroke-width="12" opacity="0.9" transform="translate(2,2)"/>
    <!-- Neon core stroke -->
    <path d="M64,0 a64,64 0 0 1 64,64 v64 c0,0 -16,-12 -32,-12 s-32,12 -32,12 s-16,-12 -32,-12 s-32,12 -32,12 v-64 a64,64 0 0 1 64,-64 z" fill="none" stroke="#39FF14" stroke-width="10" stroke-linejoin="round"/>
    <!-- Eyes -->
    <circle cx="78" cy="64" r="7" fill="#39FF14"/>
    <circle cx="110" cy="64" r="7" fill="#39FF14"/>
  </g>
  <!-- Wordmark with 2px magenta shadow -->
  <g transform="translate(300,120)">
    <text x="2" y="2" font-family="ui-monospace, SFMono-Regular, Menlo, Monaco, Consolas, Liberation Mono, monospace"
          font-size="64" font-weight="800" fill="#FF2A6D" opacity="0.9" dominant-baseline="middle">datavism</text>
    <text x="0" y="0" font-family="ui-monospace, SFMono-Regular, Menlo, Monaco, Consolas, Liberation Mono, monospace"
          font-size="64" font-weight="800" fill="#39FF14" dominant-baseline="middle">datavism</text>
  </g>
</svg>